{
    "asset" : {
        "generator" : "Khronos glTF Blender I/O v1.5.17",
        "version" : "2.0"
    },
    "scene" : 0,
    "scenes" : [
        {
            "name" : "Scene",
            "nodes" : [
                0,
                1,
                2,
                3,
                4,
                5,
                6,
                7,
                8,
                9
            ]
        }
    ],
    "nodes" : [
        {
            "name" : "Sun",
            "rotation" : [
                -0.1392637938261032,
                0.2679380774497986,
                0.33993443846702576,
                0.8906511068344116
            ],
            "translation" : [
                -3.5732369422912598,
                3.5854716300964355,
                -2.905059814453125
            ]
        },
        {
            "name" : "Camera",
            "rotation" : [
                0.2570653557777405,
                -0.7388186454772949,
                0.4834694564342499,
                0.3928380012512207
            ],
            "translation" : [
                -4.865357875823975,
                2.632314443588257,
                -3.5914647579193115
            ]
        },
        {
            "mesh" : 0,
            "name" : "Cube"
        },
        {
            "mesh" : 1,
            "name" : "Cube.002"
        },
        {
            "mesh" : 2,
            "name" : "Cube.003"
        },
        {
            "mesh" : 3,
            "name" : "Cube.004"
        },
        {
            "name" : "Empty",
            "rotation" : [
                0.7071067690849304,
                0,
                0,
                0.7071068286895752
            ],
            "scale" : [
                1.0055406093597412,
                1.0055406093597412,
                1.0055406093597412
            ],
            "translation" : [
                -0.8671180009841919,
                -0.6759870648384094,
                1.432281494140625
            ]
        },
        {
            "name" : "Empty.001",
            "rotation" : [
                1,
                0,
                0,
                7.549790126404332e-08
            ],
            "scale" : [
                1.0055406093597412,
                1.0055406093597412,
                1.0055406093597412
            ],
            "translation" : [
                -0.8630609512329102,
                2.0387659072875977,
                0.5948324203491211
            ]
        },
        {
            "name" : "Empty.002",
            "rotation" : [
                0.5,
                -0.5,
                0.4999999701976776,
                0.5000000596046448
            ],
            "scale" : [
                1.0055406093597412,
                1.0055406093597412,
                1.0055406093597412
            ],
            "translation" : [
                -4.442342281341553,
                -0.6806259155273438,
                1.6115334033966064
            ]
        },
        {
            "name" : "Empty.003",
            "rotation" : [
                0.5000019073486328,
                0.4999980926513672,
                -0.4999980628490448,
                0.5000019669532776
            ],
            "scale" : [
                1.0055406093597412,
                1.0055406093597412,
                1.0055406093597412
            ],
            "translation" : [
                3.4581289291381836,
                0.7887475490570068,
                -1.6110972166061401
            ]
        }
    ],
    "materials" : [
        {
            "doubleSided" : true,
            "name" : "Material",
            "pbrMetallicRoughness" : {
                "baseColorFactor" : [
                    1,
                    0.08644074946641922,
                    0.24552251398563385,
                    1
                ],
                "metallicFactor" : 0,
                "roughnessFactor" : 0.5
            }
        },
        {
            "doubleSided" : true,
            "name" : "Material.002",
            "pbrMetallicRoughness" : {
                "baseColorFactor" : [
                    0.8000000715255737,
                    0.610274612903595,
                    0.21051587164402008,
                    1
                ],
                "metallicFactor" : 0,
                "roughnessFactor" : 0.5
            }
        },
        {
            "doubleSided" : true,
            "name" : "Material.003",
            "pbrMetallicRoughness" : {
                "baseColorFactor" : [
                    0,
                    0,
                    0,
                    1
                ],
                "metallicFactor" : 0,
                "roughnessFactor" : 0.5
            }
        },
        {
            "doubleSided" : true,
            "name" : "Material.004",
            "pbrMetallicRoughness" : {
                "baseColorFactor" : [
                    0.3185391426086426,
                    0,
                    0.002365035004913807,
                    1
                ],
                "metallicFactor" : 0,
                "roughnessFactor" : 0.5
            }
        }
    ],
    "meshes" : [
        {
            "name" : "Cube.002",
            "primitives" : [
                {
                    "attributes" : {
                        "POSITION" : 0,
                        "NORMAL" : 1,
                        "TEXCOORD_0" : 2
                    },
                    "indices" : 3,
                    "material" : 0
                }
            ]
        },
        {
            "name" : "Cube.003",
            "primitives" : [
                {
                    "attributes" : {
                        "POSITION" : 4,
                        "NORMAL" : 5,
                        "TEXCOORD_0" : 6
                    },
                    "indices" : 7,
                    "material" : 1
                }
            ]
        },
        {
            "name" : "Cube.004",
            "primitives" : [
                {
                    "attributes" : {
                        "POSITION" : 8,
                        "NORMAL" : 9,
                        "TEXCOORD_0" : 10
                    },
                    "indices" : 11,
                    "material" : 2
                }
            ]
        },
        {
            "name" : "Cube.005",
            "primitives" : [
                {
                    "attributes" : {
                        "POSITION" : 12,
                        "NORMAL" : 13,
                        "TEXCOORD_0" : 14
                    },
                    "indices" : 15,
                    "material" : 3
                }
            ]
        }
    ],
    "accessors" : [
        {
            "bufferView" : 0,
            "componentType" : 5126,
            "count" : 1441,
            "max" : [
                1.5070346593856812,
                0.5335966944694519,
                0.6310127973556519
            ],
            "min" : [
                -1.5449323654174805,
                -0.3673691153526306,
                -0.6310127973556519
            ],
            "type" : "VEC3"
        },
        {
            "bufferView" : 1,
            "componentType" : 5126,
            "count" : 1441,
            "type" : "VEC3"
        },
        {
            "bufferView" : 2,
            "componentType" : 5126,
            "count" : 1441,
            "type" : "VEC2"
        },
        {
            "bufferView" : 3,
            "componentType" : 5123,
            "count" : 2307,
            "type" : "SCALAR"
        },
        {
            "bufferView" : 4,
            "componentType" : 5126,
            "count" : 14,
            "max" : [
                -1.4015867710113525,
                0.05645986273884773,
                0.5477778911590576
            ],
            "min" : [
                -1.50420343875885,
                -0.07767483592033386,
                -0.5477778911590576
            ],
            "type" : "VEC3"
        },
        {
            "bufferView" : 5,
            "componentType" : 5126,
            "count" : 14,
            "type" : "VEC3"
        },
        {
            "bufferView" : 6,
            "componentType" : 5126,
            "count" : 14,
            "type" : "VEC2"
        },
        {
            "bufferView" : 7,
            "componentType" : 5123,
            "count" : 30,
            "type" : "SCALAR"
        },
        {
            "bufferView" : 8,
            "componentType" : 5126,
            "count" : 81,
            "max" : [
                1.3698697090148926,
                0.5019450187683105,
                0.5766037106513977
            ],
            "min" : [
                -0.6653026342391968,
                0.1607281118631363,
                -0.5766037106513977
            ],
            "type" : "VEC3"
        },
        {
            "bufferView" : 9,
            "componentType" : 5126,
            "count" : 81,
            "type" : "VEC3"
        },
        {
            "bufferView" : 10,
            "componentType" : 5126,
            "count" : 81,
            "type" : "VEC2"
        },
        {
            "bufferView" : 11,
            "componentType" : 5123,
            "count" : 159,
            "type" : "SCALAR"
        },
        {
            "bufferView" : 12,
            "componentType" : 5126,
            "count" : 16,
            "max" : [
                1.4634006023406982,
                0.022942833602428436,
                0.5778695940971375
            ],
            "min" : [
                1.3990037441253662,
                -0.09959591925144196,
                -0.5778695940971375
            ],
            "type" : "VEC3"
        },
        {
            "bufferView" : 13,
            "componentType" : 5126,
            "count" : 16,
            "type" : "VEC3"
        },
        {
            "bufferView" : 14,
            "componentType" : 5126,
            "count" : 16,
            "type" : "VEC2"
        },
        {
            "bufferView" : 15,
            "componentType" : 5123,
            "count" : 24,
            "type" : "SCALAR"
        }
    ],
    "bufferViews" : [
        {
            "buffer" : 0,
            "byteLength" : 17292,
            "byteOffset" : 0
        },
        {
            "buffer" : 0,
            "byteLength" : 17292,
            "byteOffset" : 17292
        },
        {
            "buffer" : 0,
            "byteLength" : 11528,
            "byteOffset" : 34584
        },
        {
            "buffer" : 0,
            "byteLength" : 4614,
            "byteOffset" : 46112
        },
        {
            "buffer" : 0,
            "byteLength" : 168,
            "byteOffset" : 50728
        },
        {
            "buffer" : 0,
            "byteLength" : 168,
            "byteOffset" : 50896
        },
        {
            "buffer" : 0,
            "byteLength" : 112,
            "byteOffset" : 51064
        },
        {
            "buffer" : 0,
            "byteLength" : 60,
            "byteOffset" : 51176
        },
        {
            "buffer" : 0,
            "byteLength" : 972,
            "byteOffset" : 51236
        },
        {
            "buffer" : 0,
            "byteLength" : 972,
            "byteOffset" : 52208
        },
        {
            "buffer" : 0,
            "byteLength" : 648,
            "byteOffset" : 53180
        },
        {
            "buffer" : 0,
            "byteLength" : 318,
            "byteOffset" : 53828
        },
        {
            "buffer" : 0,
            "byteLength" : 192,
            "byteOffset" : 54148
        },
        {
            "buffer" : 0,
            "byteLength" : 192,
            "byteOffset" : 54340
        },
        {
            "buffer" : 0,
            "byteLength" : 128,
            "byteOffset" : 54532
        },
        {
            "buffer" : 0,
            "byteLength" : 48,
            "byteOffset" : 54660
        }
    ],
    "buffers" : [
        {
            "byteLength" : 54708,
            "uri" : "scene.bin"
        }
    ]
}
